# xmcd
#
# Track frame offsets: 
#        150
#        19618
#        27537
#        55184
#        76519
#        96628
#        116805
#        143552
#
# Disc length: 2302 seconds
#
# Revision: 8
# Processed by: cddbd v1.5.2PL0 Copyright (c) Steve Scherf et al.
# Submitted via: ExactAudioCopyFreeDBPlugin 1.0
#
DISCID=6108fc08
DTITLE=Arcturus - Aspera Hiems Symfonia - Constellation - My Angel
DYEAR=2002
DGENRE=Avantgarde Metal
TTITLE0=The Deep Is The Skies
TTITLE1=Cosmojam
TTITLE2=Raudt Og Svart
TTITLE3=Icebound Streams And Vapours Grey
TTITLE4=Naar Kulda Tar
TTITLE5=Du Nordavind
TTITLE6=My Angel
TTITLE7=Morax
EXTD=YEAR: 2002
EXTT0=previously unreleased
EXTT1=previously unreleased
EXTT2=Constellation EP 1994
EXTT3=Constellation EP 1994
EXTT4=Constellation EP 1994
EXTT5=Constellation EP 1994
EXTT6=My Angel EP 1991
EXTT7=My Angel EP 1991
PLAYORDER=
